<?xml version="1.0" encoding="utf-8"?>
<svg xmlns="http://www.w3.org/2000/svg" viewBox="0 0 25 25">
  <g>
    <path fill="none" d="M12.5,9.8c1.6,0,3-1.4,3-3c0-1.6-1.4-3-3-3s-3,1.4-3,3C9.5,8.5,10.9,9.8,12.5,9.8z"/>
    <path fill="currentColor" d="M12.5,11.6c2.6,0,4.8-2.1,4.8-4.8c0-2.6-2.1-4.8-4.8-4.8S7.7,4.2,7.7,6.8C7.7,9.5,9.9,11.6,12.5,11.6zM12.5,3.8c1.6,0,3,1.4,3,3c0,1.6-1.4,3-3,3s-3-1.4-3-3C9.5,5.2,10.9,3.8,12.5,3.8z"/>
    <path fill="currentColor" d="M13.4,11.9h-1.7c-3.7,0-6.7,2.4-6.7,5.4V22c0,0.5,0.4,0.9,0.9,0.9s0.9-0.4,0.9-0.9v-4.7c0-2,2.2-3.6,5-3.6h1.7c2.7,0,5,1.6,5,3.6V22c0,0.5,0.4,0.9,0.9,0.9s0.9-0.4,0.9-0.9v-4.8C20.1,14.3,17.1,11.9,13.4,11.9z"/>
  </g>
</svg>
